<svg xmlns="http://www.w3.org/2000/svg" viewBox="100 20 300 320">
<style type="text/css">
	.st1{fill:#8CD1C9;}
</style>
<path class="st1" d="M248,160.4l-1.8-2.2c-27.9-34.2-26.4-67.4-20.2-89.2c6.7-23.4,19.7-38.6,20.3-39.2l3.2-3.7l3.4,3.6
	c28.9,30.8,27.9,63.5,22.1,85.6c-5.4,20.5-19.5,43.4-24.3,44.5L248,160.4z M249.9,40.6c-9.7,13.4-36.1,58-0.2,106.6
	c6-8.5,19.1-29.9,19.4-55.7C269.3,72.9,262.9,55.9,249.9,40.6z"/>
<path class="st1" d="M267,326.5c-2.3,0-4.3-1.9-4.6-4.4c-0.2-2.1-5.2-52.3,2.6-103.7c0.2-1.1,0.4-2.3,0.5-3.4
	c-6.7,0.4-15.1,0.4-15.3,0.4c-7,0-12.1-0.1-15.8-0.3c0.2,1.1,0.4,2.2,0.5,3.3c7.8,51.4,2.8,101.6,2.6,103.7
	c-0.3,2.7-2.6,4.7-5.1,4.4c-2.5-0.3-4.4-2.8-4.1-5.5c0.1-0.5,5.1-51-2.5-101c-0.3-2-0.6-4.1-1-6c-53.2-8.9-82.9-34.7-98.5-55
	c-17.4-22.6-21.5-43.1-21.6-43.9l-1-5.3l5-0.6c1.1-0.1,27.3-3.3,56.1,8.5c24.8,10.1,55.6,33.5,67.7,87.3c4.1,0.3,11.4,0.6,17.8,0.6
	c6.3,0,13.3-0.3,17.3-0.6c12.1-53.7,43-77.1,67.7-87.3c28.8-11.8,55-8.6,56.1-8.5l5,0.6l-1,5.3c-0.2,0.9-4.3,21.4-21.6,43.9
	c-15.6,20.3-45.3,46-98.5,55c-0.4,2-0.7,4-1,6c-7.6,50-2.6,100.5-2.5,101c0.3,2.7-1.6,5.2-4.1,5.5
	C267.3,326.5,267.2,326.5,267,326.5z M381.8,118.6c-9.6,0-26.2,1.3-43.6,8.4c-31.1,12.9-51.5,38.5-60.8,76.4
	c38.1-7.1,68.7-24.5,88.8-50.4c10.8-14,16.2-27.2,18.5-34.4C383.8,118.6,382.8,118.6,381.8,118.6z M115.3,118.7
	c2.3,7.2,7.6,20.4,18.5,34.4c20.1,25.9,50.8,43.3,88.8,50.4c-9.4-37.9-29.8-63.5-60.8-76.4C142.6,119.1,124.2,118.4,115.3,118.7z"/>
</svg>
