<?xml version="1.0" encoding="utf-8"?>
<svg version="1.1" id="Layer_1" xmlns="http://www.w3.org/2000/svg" xmlns:xlink="http://www.w3.org/1999/xlink" x="0px" y="0px"
	 viewBox="0 0 565.4 228.6" style="enable-background:new 0 0 565.4 228.6;" xml:space="preserve">
<style type="text/css">
	.st0{fill:#8CD1C9;}
	.st1{fill:#005978;}
</style>
<g>
	<g>
		<path class="st0" d="M107.6,105.1l-1.1-1.3C90.4,84.1,91.3,65,94.9,52.4c3.8-13.5,11.4-22.3,11.7-22.6l1.9-2.1l1.9,2.1
			c16.7,17.8,16.1,36.7,12.7,49.4c-3.1,11.8-11.3,25-14,25.7L107.6,105.1z M108.7,36c-5.6,7.7-20.8,33.5-0.1,61.5
			c3.5-4.9,11-17.2,11.2-32.2C119.9,54.7,116.1,44.8,108.7,36z"/>
		<path class="st0" d="M118.5,201c-1.3,0-2.5-1.1-2.6-2.6c-0.1-1.2-3-30.2,1.5-59.8c0.1-0.7,0.2-1.3,0.3-2c-3.9,0.2-8.7,0.3-8.8,0.3
			c-4.1,0-7-0.1-9.1-0.2c0.1,0.6,0.2,1.3,0.3,1.9c4.5,29.6,1.6,58.6,1.5,59.8c-0.2,1.6-1.5,2.7-2.9,2.5c-1.5-0.2-2.5-1.6-2.4-3.2
			c0-0.3,2.9-29.4-1.5-58.3c-0.2-1.2-0.4-2.3-0.6-3.5c-30.7-5.1-47.8-20-56.8-31.7C27.4,91.3,25,79.5,24.9,79l-0.6-3.1l2.9-0.4
			c0.6-0.1,15.7-1.9,32.3,4.9c14.3,5.9,32.1,19.3,39.1,50.3c2.4,0.1,6.6,0.3,10.3,0.3c3.7,0,7.7-0.2,10-0.3
			c7-31,24.8-44.5,39.1-50.3c16.6-6.8,31.7-5,32.3-4.9l2.9,0.4l-0.6,3.1c-0.1,0.5-2.5,12.3-12.5,25.3c-9,11.7-26.1,26.6-56.8,31.7
			c-0.2,1.1-0.4,2.3-0.6,3.5c-4.4,28.8-1.5,58-1.5,58.3c0.2,1.6-0.9,3-2.4,3.2C118.7,201,118.6,201,118.5,201z M184.8,81.1
			c-5.5,0-15.1,0.7-25.1,4.9c-17.9,7.4-29.7,22.2-35.1,44.1c22-4.1,39.6-14.1,51.2-29.1c6.3-8,9.3-15.7,10.7-19.8
			C185.9,81.1,185.4,81.1,184.8,81.1z M31,81.1c1.3,4.2,4.4,11.8,10.7,19.8c11.6,15,29.3,25,51.2,29.1
			c-5.4-21.9-17.2-36.7-35.1-44.1C46.7,81.3,36.1,80.9,31,81.1z"/>
	</g>
	<g>
		<path class="st1" d="M221.9,38.2c0-4.8,3.6-8.7,8.6-8.7c4.9,0,8.6,3.6,8.6,8.3c0,5.1-3.5,9-8.6,9C225.5,46.8,221.9,43,221.9,38.2z
			 M223.7,57h13.4v61.6h-13.4V57z"/>
		<path class="st1" d="M310.9,83.3v35.3h-13.4V85.1c0-11-5-16.3-13.6-16.3c-9.5,0-15.9,6.2-15.9,18.6v31.1h-13.4V57h12.7v8
			c4.4-5.7,11.3-8.7,19.7-8.7C300.7,56.3,310.9,64.7,310.9,83.3z"/>
		<path class="st1" d="M321.4,112.5l5.1-11c5,3.6,12.7,6.1,19.9,6.1c8.5,0,12-2.5,12-6.8c0-11.8-35.3-0.7-35.3-25.3
			c0-11.7,9.7-19.3,25.1-19.3c7.6,0,16.3,2,21.4,5.3l-5.1,11c-5.5-3.5-10.9-4.6-16.4-4.6c-8.1,0-12,2.9-12,6.9
			c0,12.5,35.3,1.4,35.3,25.5c0,11.5-9.8,19-25.9,19C336,119.4,326.5,116.4,321.4,112.5z"/>
		<path class="st1" d="M381.2,38.2c0-4.8,3.6-8.7,8.6-8.7c4.9,0,8.6,3.6,8.6,8.3c0,5.1-3.5,9-8.6,9C384.8,46.8,381.2,43,381.2,38.2z
			 M383,57h13.4v61.6H383V57z"/>
		<path class="st1" d="M469.8,33v85.6H457v-8c-4.5,5.9-11.1,8.8-18.9,8.8c-16.6,0-28.9-12.5-28.9-31.6c0-19.1,12.3-31.5,28.9-31.5
			c7.4,0,13.9,2.7,18.4,8.3V33H469.8z M456.7,87.8c0-11.8-7.4-19.3-17-19.3s-17,7.5-17,19.3s7.4,19.3,17,19.3S456.7,99.5,456.7,87.8
			z"/>
		<path class="st1" d="M540.9,92.4h-44.8c1.6,9,8.6,14.8,18.5,14.8c6.4,0,11.4-2.2,15.5-6.7l7.2,8.9c-5.1,6.6-13.2,10-23,10
			c-19.1,0-31.6-13.3-31.6-31.6s12.5-31.5,29.5-31.5c16.7,0,28.9,12.6,28.9,31.8C541.1,89.3,541,91,540.9,92.4z M496,82.8h32.4
			c-1.1-8.9-7.4-15-16.1-15C503.5,67.8,497.2,73.8,496,82.8z"/>
	</g>
	<g>
		<path class="st0" d="M271.5,139.2v60.2h-10.4v-25.8h-28.9v25.8h-10.4v-60.2h10.4v24.8h28.9v-24.8H271.5z"/>
		<path class="st0" d="M328.4,190.1v9.4h-41.9v-60.2h40.8v9.4h-30.4v15.6h27v9.2h-27v16.6H328.4z"/>
		<path class="st0" d="M376.1,185.5h-27.9l-5.5,13.9H332l25.1-60.2h10.2l25.2,60.2h-10.8L376.1,185.5z M372.7,176.7l-10.5-26.3
			l-10.4,26.3H372.7z"/>
		<path class="st0" d="M399.6,139.2H410V190h29.2v9.5h-39.6V139.2z"/>
		<path class="st0" d="M453.5,148.7H435v-9.5h47.4v9.5h-18.5v50.7h-10.4V148.7z"/>
		<path class="st0" d="M539.8,139.2v60.2h-10.4v-25.8h-28.9v25.8h-10.4v-60.2h10.4v24.8h28.9v-24.8H539.8z"/>
	</g>
</g>
</svg>
